<svg xmlns="http://www.w3.org/2000/svg" width="47mm" height="47mm" viewBox="0 0 133.24 133.24"><defs><style>.a{fill:#be1902;opacity:0.75;}.b{fill:#fff;}</style></defs><title>three-sixty</title><circle class="a" cx="66.62" cy="66.62" r="66.62"/><path class="b" d="M55.39,92l-.08-.13-.11-.12L46.07,83.1l0,0,0,0,0,0,0,0L45.85,83l-.13-.05-.14,0-.15,0h-.67l-.17,0-.17,0-.17,0L44.1,83l-.16.06-.15.07-.13.08-.12.09-4,3.37-1-.34-1-.35-1-.36-.93-.37-.9-.37-.86-.38L33,84.1l-.79-.39-.76-.39-.72-.4-.69-.4-.66-.41-.62-.41-.58-.41-.55-.41-.52-.42q-.59-.49-1.09-1t-.93-1a12.35,12.35,0,0,1-.77-1,10.37,10.37,0,0,1-.61-1,9,9,0,0,1-.45-1,7.88,7.88,0,0,1-.31-1,7.17,7.17,0,0,1-.17-1,6.79,6.79,0,0,1,0-.94,6.87,6.87,0,0,1,.08-.9,7.24,7.24,0,0,1,.2-.89,7.92,7.92,0,0,1,.31-.87,9,9,0,0,1,.42-.86q.22-.41.49-.81t.59-.8q.32-.39.68-.78t.78-.76h0a21.25,21.25,0,0,1,7.26-5.7c-.38.14-.77.28-1.14.43q-1.32.54-2.57,1.13t-2.41,1.25c-.77.44-1.51.9-2.21,1.38a23.68,23.68,0,0,0-2,1.51q-.48.41-.9.82t-.81.84q-.38.43-.71.86t-.62.88q-.3.47-.54.94a9.58,9.58,0,0,0-.42,1,8.67,8.67,0,0,0-.3,1,8.11,8.11,0,0,0-.18,1,7.84,7.84,0,0,0,0,2.11,8.39,8.39,0,0,0,.24,1.07,9.32,9.32,0,0,0,.39,1.08A10.39,10.39,0,0,0,20,78.66a12.38,12.38,0,0,0,.75,1.13q.42.56.93,1.12T22.83,82l.55.48L24,83l.62.48.66.48.71.48.74.47.78.47.82.46.87.46.91.45.95.44,1,.44,1,.43,1.08.42,1.12.41,1.16.4-5.15,4.35-.1.08-.08.08-.07.09-.07.09,0,.08,0,.08,0,.08,0,.08s0,.05,0,.08a.72.72,0,0,0,0,.08.56.56,0,0,0,0,.07l0,.07,0,.07,0,.06,0,.06.05.06h0l.22.16.06,0,.07,0,.07,0,.08,0,.09,0,.09,0h.61l21.5-1.74.24,0,.23,0,.21-.07.19-.08.18-.09L55,93l.14-.11.11-.12.09-.13.07-.13a.7.7,0,0,0,0-.14.59.59,0,0,0,0-.14.61.61,0,0,0,0-.13A.63.63,0,0,0,55.39,92Z"/><path class="b" d="M114.33,73.19a8.8,8.8,0,0,0-.48-1.57,10.55,10.55,0,0,0-.78-1.53,13.08,13.08,0,0,0-1-1.39,16.4,16.4,0,0,0-1.23-1.35q-.67-.66-1.46-1.3t-1.67-1.25l-1-.64-1-.61-.68-.38c2.81,2.24,4.5,4.75,4.77,7.41.08.2.16.4.22.59a7.34,7.34,0,0,1,.3,1.42,6.92,6.92,0,0,1,0,1.45,7.27,7.27,0,0,1-.3,1.47,8.38,8.38,0,0,1-.67,1.56,10.74,10.74,0,0,1-1.06,1.55,14.41,14.41,0,0,1-1.45,1.54,19.62,19.62,0,0,1-1.86,1.5,26.56,26.56,0,0,1-2.4,1.53q-1.32.75-2.86,1.45T96.43,86q-1.78.65-3.77,1.22l-.12,0-.11,0-.09.05-.08.06-.07.06-.05.07,0,.07,0,.08a.49.49,0,0,0,0,.16.51.51,0,0,0,0,.08l0,.09,0,.09.06.09.08.09.1.09,1.15,1,.12.09.11.08.13.08.15.07.11.05.11,0,.12,0,.12,0,.12,0,.12,0,.12,0L95,90h.6l.11,0,.11,0,.1,0q2.21-.68,4.17-1.43t3.62-1.57q1.67-.81,3.08-1.68a26.47,26.47,0,0,0,2.54-1.77l3-2.94q.4-.51.72-1a10.77,10.77,0,0,0,.57-1,9.42,9.42,0,0,0,.43-1,8.48,8.48,0,0,0,.29-1,7.87,7.87,0,0,0,0-3.24Z"/><path class="b" d="M35.61,66.77a9.73,9.73,0,0,0,7.32,3.41c3.46,0,5.93-2.07,5.93-5.26,0-3.42-2.34-5.71-9.17-5.71V56.39c6.11,0,8.13-2.34,8.13-5.35,0-2.79-1.89-4.54-4.94-4.54a8.69,8.69,0,0,0-6.11,2.92l-2-2.34A11.8,11.8,0,0,1,43,43.5c5,0,8.58,2.65,8.58,7.28,0,3.46-2.11,5.66-5.21,6.83v.18c3.46.81,6.2,3.33,6.2,7.28,0,5.08-4.18,8.18-9.44,8.18a12.18,12.18,0,0,1-9.44-4Z"/><path class="b" d="M72.82,48.84A6.24,6.24,0,0,0,68.1,46.6c-4,0-7.37,3.1-7.55,12.18a9.16,9.16,0,0,1,6.69-3.59c4.94,0,8.18,3,8.18,8.85,0,5.48-3.86,9.21-8.49,9.21-5.62,0-9.88-4.58-9.88-13.79,0-11.5,5.21-16,10.92-16a9,9,0,0,1,6.92,3.06ZM71.92,64c0-3.73-1.75-6.07-5.3-6.07-1.8,0-4,1.08-6,3.77.45,5.57,2.65,8.58,6.29,8.58C69.76,70.32,71.92,67.8,71.92,64Z"/><path class="b" d="M79.2,58.28c0-9.62,3.46-14.78,9.21-14.78s9.17,5.17,9.17,14.78-3.46,15-9.17,15S79.2,67.89,79.2,58.28Zm14.78,0c0-8.4-2.25-11.82-5.57-11.82S82.8,49.88,82.8,58.28s2.25,12,5.62,12S94,66.68,94,58.28Z"/></svg>